<svg width="7155" height="1224" viewBox="0 0 7155 1224" fill="none" xmlns="http://www.w3.org/2000/svg">
<path fill-rule="evenodd" clip-rule="evenodd" d="M480 128H960C1154.4 128 1312 285.596 1312 480C1312 674.404 1154.4 832 960 832H480C285.596 832 128 674.404 128 480C128 285.596 285.596 128 480 128ZM0 480C0 214.903 214.903 0 480 0H960C1225.1 0 1440 214.903 1440 480C1440 745.097 1225.1 960 960 960H480C214.903 960 0 745.097 0 480ZM353 334.861V334.664V246L1087 246L1087 334.861V714H948.727V334.861H858.273V714H720V334.861L629.546 334.861V713.803H353V334.861ZM6273.1 44.8359H6401.95V664.999H6274.95V613.087C6266.3 647.695 6241.27 664.999 6199.86 664.999H6177.61C6105.31 664.999 6069.16 630.7 6069.16 562.102V308.104C6069.16 240.124 6105.31 206.134 6177.61 206.134H6199.86C6239.41 206.134 6263.83 221.275 6273.1 251.557V44.8359ZM6223.96 567.664H6245.29C6263.83 567.664 6273.1 557.776 6273.1 538V333.133C6273.1 313.357 6263.83 303.469 6245.29 303.469H6223.96C6214.69 303.469 6208.21 305.323 6204.5 309.031C6200.79 312.121 6198.94 317.992 6198.94 326.644V544.489C6198.94 559.939 6207.28 567.664 6223.96 567.664ZM1911.52 664.999H1794.71V75.4269H1939.33L2036.66 409.147L2134 75.4269H2278.61V664.999H2161.81V269.17L2085.79 537.073H1987.53L1911.52 270.097V664.999ZM2556.99 206.134H2683.99V664.999H2555.14V619.576C2545.87 649.858 2521.46 664.999 2481.9 664.999H2459.66C2387.35 664.999 2351.2 630.7 2351.2 562.102V309.031C2351.2 240.433 2387.35 206.134 2459.66 206.134H2481.9C2523.31 206.134 2548.34 223.438 2556.99 258.046V206.134ZM2506.01 567.664H2527.33C2545.87 567.664 2555.14 557.776 2555.14 538V333.133C2555.14 313.357 2545.87 303.469 2527.33 303.469H2506.01C2489.32 303.469 2480.98 311.194 2480.98 326.644V544.489C2480.98 559.939 2489.32 567.664 2506.01 567.664ZM2994.16 203.353H2978.4C2954.3 203.353 2934.52 209.842 2919.07 222.82C2903.62 235.18 2893.42 251.557 2888.48 271.951V206.134H2761.48V664.999H2890.33V380.41C2890.33 337.15 2909.8 315.52 2948.74 315.52H2994.16V203.353ZM3166.44 664.999H3037.59V206.134H3166.44V664.999ZM3463.69 206.134H3353.38C3312.59 206.134 3283.24 215.095 3265.31 233.017C3248.01 250.321 3239.36 275.659 3239.36 309.031V562.102C3239.36 595.474 3248.01 621.121 3265.31 639.043C3283.24 656.347 3312.59 664.999 3353.38 664.999H3463.69C3504.48 664.999 3533.53 656.347 3550.83 639.043C3568.75 621.121 3577.71 595.474 3577.71 562.102V309.031C3577.71 275.659 3568.75 250.321 3550.83 233.017C3533.53 215.095 3504.48 206.134 3463.69 206.134ZM3450.71 322.009V549.124C3450.71 564.574 3442.37 572.299 3425.68 572.299H3391.39C3374.7 572.299 3366.36 564.574 3366.36 549.124V322.009C3366.36 306.559 3374.7 298.834 3391.39 298.834H3425.68C3442.37 298.834 3450.71 306.559 3450.71 322.009ZM4136.85 172.762H3952.37V334.987H4107.18V426.76H3952.37V664.999H3819.81V75.4269H4136.85V172.762ZM4402.35 206.134H4297.6C4219.73 206.134 4180.8 240.433 4180.8 309.031V562.102C4180.8 630.7 4219.73 664.999 4297.6 664.999H4401.42C4479.91 664.999 4519.15 630.7 4519.15 562.102V517.606H4394.94V548.197C4394.94 556.849 4393.08 563.029 4389.37 566.737C4385.67 570.445 4379.49 572.299 4370.83 572.299H4329.12C4319.85 572.299 4313.36 570.754 4309.65 567.664C4305.94 563.956 4304.09 558.085 4304.09 550.051V471.256H4520.08V309.031C4520.08 240.433 4480.84 206.134 4402.35 206.134ZM4395.86 395.242H4304.09V321.082C4304.09 313.048 4305.94 307.486 4309.65 304.396C4313.36 300.688 4319.85 298.834 4329.12 298.834H4371.76C4380.41 298.834 4386.59 300.688 4390.3 304.396C4394.01 307.486 4395.86 313.048 4395.86 321.082V395.242ZM4801.62 203.353H4817.38V315.52H4771.96C4733.02 315.52 4713.56 337.15 4713.56 380.41V664.999H4584.7V206.134H4711.7V271.951C4716.65 251.557 4726.84 235.18 4742.29 222.82C4757.74 209.842 4777.52 203.353 4801.62 203.353ZM5085.14 206.134H5061.97C5021.18 206.134 4996.46 223.438 4987.81 258.046V206.134H4860.81V664.999H4989.66V333.133C4989.66 313.357 4998.62 303.469 5016.55 303.469H5038.79C5055.48 303.469 5063.82 311.194 5063.82 326.644V664.999H5193.6V309.031C5193.6 240.433 5157.45 206.134 5085.14 206.134ZM5465.63 206.134H5592.63V664.999H5463.78V619.576C5454.51 649.858 5430.1 664.999 5390.55 664.999H5368.3C5295.99 664.999 5259.84 630.7 5259.84 562.102V309.031C5259.84 240.433 5295.99 206.134 5368.3 206.134H5390.55C5431.95 206.134 5456.98 223.438 5465.63 258.046V206.134ZM5414.65 567.664H5435.97C5454.51 567.664 5463.78 557.776 5463.78 538V333.133C5463.78 313.357 5454.51 303.469 5435.97 303.469H5414.65C5397.96 303.469 5389.62 311.194 5389.62 326.644V544.489C5389.62 559.939 5397.96 567.664 5414.65 567.664ZM5894.46 206.134H5871.28C5830.5 206.134 5805.78 223.438 5797.12 258.046V206.134H5670.12V664.999H5798.98V333.133C5798.98 313.357 5807.94 303.469 5825.86 303.469H5848.11C5864.79 303.469 5873.14 311.194 5873.14 326.644V664.999H6002.92V309.031C6002.92 240.433 5966.77 206.134 5894.46 206.134ZM6694.5 206.134H6589.75C6511.88 206.134 6472.95 240.433 6472.95 309.031V562.102C6472.95 630.7 6511.88 664.999 6589.75 664.999H6693.58C6772.06 664.999 6811.31 630.7 6811.31 562.102V517.606H6687.09V548.197C6687.09 556.849 6685.23 563.029 6681.53 566.737C6677.82 570.445 6671.64 572.299 6662.99 572.299H6621.27C6612 572.299 6605.51 570.754 6601.8 567.664C6598.1 563.956 6596.24 558.085 6596.24 550.051V471.256H6812.23V309.031C6812.23 240.433 6772.99 206.134 6694.5 206.134ZM6688.01 395.242H6596.24V321.082C6596.24 313.048 6598.1 307.486 6601.8 304.396C6605.51 300.688 6612 298.834 6621.27 298.834H6663.91C6672.56 298.834 6678.74 300.688 6682.45 304.396C6686.16 307.486 6688.01 313.048 6688.01 321.082V395.242ZM7154.96 571.372V664.999H6849.04V571.372L7011.27 299.761H6860.17V206.134H7148.47V299.761L6984.39 571.372H7154.96ZM1919.98 1177.67C1921.36 1177.67 1922.57 1178.23 1923.6 1179.35L1933.57 1190.1C1925.98 1198.91 1916.74 1205.77 1905.86 1210.69C1895.07 1215.61 1881.99 1218.07 1866.62 1218.07C1853.33 1218.07 1841.24 1215.78 1830.36 1211.21C1819.48 1206.55 1810.2 1200.07 1802.52 1191.78C1794.84 1183.41 1788.88 1173.39 1784.65 1161.74C1780.42 1150.08 1778.3 1137.26 1778.3 1123.28C1778.3 1109.29 1780.5 1096.47 1784.91 1084.82C1789.31 1073.16 1795.48 1063.15 1803.43 1054.77C1811.45 1046.4 1821.04 1039.92 1832.17 1035.35C1843.31 1030.68 1855.61 1028.35 1869.08 1028.35C1882.29 1028.35 1893.95 1030.47 1904.05 1034.7C1914.15 1038.93 1923.04 1044.67 1930.72 1051.92L1922.44 1063.45C1921.92 1064.31 1921.23 1065.05 1920.36 1065.65C1919.59 1066.17 1918.51 1066.43 1917.13 1066.43C1915.57 1066.43 1913.67 1065.61 1911.43 1063.97C1909.18 1062.24 1906.25 1060.34 1902.62 1058.27C1899 1056.2 1894.46 1054.34 1889.03 1052.7C1883.59 1050.97 1876.9 1050.11 1868.95 1050.11C1859.37 1050.11 1850.61 1051.79 1842.66 1055.16C1834.72 1058.44 1827.86 1063.23 1822.07 1069.53C1816.38 1075.84 1811.93 1083.52 1808.73 1092.59C1805.54 1101.65 1803.94 1111.88 1803.94 1123.28C1803.94 1134.85 1805.58 1145.16 1808.86 1154.23C1812.23 1163.29 1816.76 1170.98 1822.46 1177.28C1828.25 1183.49 1835.02 1188.24 1842.79 1191.52C1850.65 1194.8 1859.11 1196.44 1868.18 1196.44C1873.7 1196.44 1878.67 1196.14 1883.07 1195.54C1887.56 1194.85 1891.66 1193.81 1895.37 1192.43C1899.17 1191.05 1902.67 1189.32 1905.86 1187.25C1909.14 1185.09 1912.38 1182.54 1915.57 1179.61C1917.04 1178.31 1918.51 1177.67 1919.98 1177.67ZM2119.79 1196.06C2127.47 1196.06 2134.33 1194.76 2140.38 1192.17C2146.42 1189.58 2151.51 1185.96 2155.66 1181.29C2159.89 1176.63 2163.08 1171.06 2165.24 1164.59C2167.49 1158.11 2168.61 1150.99 2168.61 1143.22V1030.43H2193.6V1143.22C2193.6 1153.93 2191.87 1163.85 2188.42 1173.01C2185.05 1182.16 2180.18 1190.1 2173.79 1196.83C2167.49 1203.48 2159.76 1208.7 2150.61 1212.5C2141.46 1216.3 2131.18 1218.2 2119.79 1218.2C2108.39 1218.2 2098.12 1216.3 2088.96 1212.5C2079.81 1208.7 2072.04 1203.48 2065.65 1196.83C2059.27 1190.1 2054.35 1182.16 2050.89 1173.01C2047.52 1163.85 2045.84 1153.93 2045.84 1143.22V1030.43H2070.83V1143.09C2070.83 1150.86 2071.91 1157.98 2074.07 1164.46C2076.32 1170.93 2079.51 1176.5 2083.66 1181.16C2087.89 1185.83 2093.02 1189.49 2099.07 1192.17C2105.2 1194.76 2112.1 1196.06 2119.79 1196.06ZM2429.38 1216V1194.89H2349.09V1030.43H2324.1V1216H2429.38ZM2643.81 1051.53H2583.73V1216H2558.73V1051.53H2498.51V1030.43H2643.81V1051.53ZM2849.02 1192.17C2842.98 1194.76 2836.12 1196.06 2828.43 1196.06C2820.75 1196.06 2813.84 1194.76 2807.71 1192.17C2801.67 1189.49 2796.53 1185.83 2792.3 1181.16C2788.16 1176.5 2784.97 1170.93 2782.72 1164.46C2780.56 1157.98 2779.48 1150.86 2779.48 1143.09V1030.43H2754.49V1143.22C2754.49 1153.93 2756.17 1163.85 2759.54 1173.01C2762.99 1182.16 2767.91 1190.1 2774.3 1196.83C2780.69 1203.48 2788.46 1208.7 2797.61 1212.5C2806.76 1216.3 2817.04 1218.2 2828.43 1218.2C2839.83 1218.2 2850.1 1216.3 2859.26 1212.5C2868.41 1208.7 2876.13 1203.48 2882.44 1196.83C2888.82 1190.1 2893.7 1182.16 2897.07 1173.01C2900.52 1163.85 2902.25 1153.93 2902.25 1143.22V1030.43H2877.26V1143.22C2877.26 1150.99 2876.13 1158.11 2873.89 1164.59C2871.73 1171.06 2868.54 1176.63 2864.31 1181.29C2860.16 1185.96 2855.07 1189.58 2849.02 1192.17ZM3084.16 1120.3C3091.41 1120.3 3097.8 1119.44 3103.32 1117.71C3108.94 1115.9 3113.6 1113.39 3117.31 1110.2C3121.11 1106.92 3123.96 1103.03 3125.86 1098.54C3127.76 1094.05 3128.71 1089.09 3128.71 1083.65C3128.71 1072.6 3125.08 1064.27 3117.83 1058.66C3110.58 1053.04 3099.7 1050.24 3085.19 1050.24H3057.74V1120.3H3084.16ZM3169.89 1216H3147.61C3143.04 1216 3139.67 1214.23 3137.51 1210.69L3089.34 1144.39C3087.87 1142.31 3086.27 1140.85 3084.55 1139.98C3082.91 1139.03 3080.32 1138.56 3076.78 1138.56H3057.74V1216H3032.75V1030.43H3085.19C3096.94 1030.43 3107.08 1031.63 3115.63 1034.05C3124.17 1036.38 3131.21 1039.79 3136.74 1044.28C3142.35 1048.77 3146.49 1054.21 3149.17 1060.6C3151.84 1066.9 3153.18 1073.98 3153.18 1081.84C3153.18 1088.4 3152.15 1094.53 3150.07 1100.23C3148 1105.92 3144.98 1111.06 3141.01 1115.64C3137.12 1120.13 3132.33 1123.97 3126.63 1127.16C3121.02 1130.36 3114.63 1132.77 3107.47 1134.41C3110.66 1136.23 3113.43 1138.86 3115.76 1142.31L3169.89 1216ZM3394.95 1216L3395.08 1195.54H3305.72V1132.21H3377.98V1112.53H3305.72V1050.89H3394.95V1030.43H3280.6V1216H3394.95ZM4754.57 1216H4729.45V1030.43H4754.57V1216ZM5037.86 1216V1030.43H5015.84V1161.87C5015.84 1163.77 5015.89 1165.8 5015.97 1167.95C5016.06 1168.96 5016.14 1169.99 5016.23 1171.04L5016.3 1172.01L5016.41 1173.31L5016.49 1174.43L4909.14 1034.7C4908.45 1033.84 4907.8 1033.15 4907.19 1032.63C4906.59 1032.02 4905.99 1031.59 4905.38 1031.33C4904.78 1030.99 4904.09 1030.77 4903.31 1030.68C4902.53 1030.51 4901.58 1030.43 4900.46 1030.43H4887.51V1216H4909.53V1083.78C4909.53 1082.5 4909.5 1081.16 4909.46 1079.75C4909.44 1079.16 4909.42 1078.56 4909.4 1077.95C4909.31 1075.88 4909.18 1073.76 4909.01 1071.61L5016.36 1211.47C5017.66 1213.11 5018.95 1214.27 5020.25 1214.96C5021.63 1215.65 5023.31 1216 5025.3 1216H5037.86ZM5321.12 1030.43V1216H5308.56C5306.57 1216 5304.89 1215.65 5303.51 1214.96C5302.21 1214.27 5300.92 1213.11 5299.62 1211.47L5192.27 1071.61C5192.29 1071.92 5192.32 1072.23 5192.34 1072.55C5192.37 1072.91 5192.39 1073.27 5192.42 1073.63L5192.47 1074.37L5192.5 1074.94C5192.53 1075.45 5192.56 1075.95 5192.59 1076.44C5192.61 1076.95 5192.64 1077.45 5192.66 1077.95C5192.74 1080.02 5192.79 1081.97 5192.79 1083.78V1216H5170.77V1030.43H5183.72C5184.84 1030.43 5185.79 1030.51 5186.57 1030.68C5187.35 1030.77 5188.04 1030.99 5188.64 1031.33C5189.25 1031.59 5189.85 1032.02 5190.46 1032.63C5191.06 1033.15 5191.71 1033.84 5192.4 1034.7L5299.75 1174.43C5299.58 1172.18 5299.41 1170.03 5299.24 1167.95C5299.15 1165.8 5299.11 1163.77 5299.11 1161.87V1030.43H5321.12ZM5618.89 1161.61C5623.29 1149.95 5625.49 1137.18 5625.49 1123.28C5625.49 1109.38 5623.29 1096.64 5618.89 1085.07C5614.48 1073.42 5608.27 1063.4 5600.24 1055.03C5592.21 1046.57 5582.54 1040.01 5571.23 1035.35C5560.01 1030.68 5547.57 1028.35 5533.93 1028.35C5520.29 1028.35 5507.86 1030.68 5496.64 1035.35C5485.41 1040.01 5475.79 1046.57 5467.76 1055.03C5459.73 1063.4 5453.51 1073.42 5449.11 1085.07C5444.71 1096.64 5442.51 1109.38 5442.51 1123.28C5442.51 1137.18 5444.71 1149.95 5449.11 1161.61C5453.51 1173.18 5459.73 1183.15 5467.76 1191.52C5475.79 1199.9 5485.41 1206.42 5496.64 1211.08C5507.86 1215.65 5520.29 1217.94 5533.93 1217.94C5547.57 1217.94 5560.01 1215.65 5571.23 1211.08C5582.54 1206.42 5592.21 1199.9 5600.24 1191.52C5608.27 1183.15 5614.48 1173.18 5618.89 1161.61ZM5595.06 1092.59C5598.17 1101.65 5599.72 1111.88 5599.72 1123.28C5599.72 1134.67 5598.17 1144.9 5595.06 1153.97C5591.95 1162.95 5587.55 1170.59 5581.85 1176.89C5576.15 1183.11 5569.24 1187.9 5561.13 1191.26C5553.01 1194.55 5543.95 1196.19 5533.93 1196.19C5524.01 1196.19 5514.98 1194.55 5506.87 1191.26C5498.75 1187.9 5491.8 1183.11 5486.02 1176.89C5480.32 1170.59 5475.92 1162.95 5472.81 1153.97C5469.7 1144.9 5468.15 1134.67 5468.15 1123.28C5468.15 1111.88 5469.7 1101.65 5472.81 1092.59C5475.92 1083.52 5480.32 1075.88 5486.02 1069.66C5491.8 1063.36 5498.75 1058.53 5506.87 1055.16C5514.98 1051.79 5524.01 1050.11 5533.93 1050.11C5543.95 1050.11 5553.01 1051.79 5561.13 1055.16C5569.24 1058.53 5576.15 1063.36 5581.85 1069.66C5587.55 1075.88 5591.95 1083.52 5595.06 1092.59ZM5892.71 1030.43L5817.09 1216H5794.55L5718.92 1030.43H5739C5741.24 1030.43 5743.06 1030.99 5744.44 1032.11C5745.82 1033.23 5746.85 1034.66 5747.54 1036.38L5799.86 1167.31C5800.98 1170.24 5802.06 1173.44 5803.1 1176.89C5804.22 1180.34 5805.21 1183.97 5806.08 1187.77C5806.94 1183.97 5807.85 1180.34 5808.8 1176.89C5809.75 1173.44 5810.78 1170.24 5811.91 1167.31L5864.09 1036.38C5864.61 1034.91 5865.6 1033.58 5867.07 1032.37C5868.63 1031.07 5870.48 1030.43 5872.64 1030.43H5892.71ZM6058.1 1071.61L6087.23 1147.1H6017.95L6047.09 1071.74C6048.99 1067.07 6050.84 1061.25 6052.66 1054.25C6053.52 1057.62 6054.43 1060.81 6055.38 1063.84C6056.33 1066.77 6057.23 1069.36 6058.1 1071.61ZM6120.13 1216H6139.55L6065.35 1030.43H6039.97L5965.76 1216H5985.19C5987.35 1216 5989.16 1215.39 5990.63 1214.19C5992.1 1212.98 5993.09 1211.6 5993.61 1210.04L6010.96 1165.23H6094.23L6111.58 1210.04C6112.27 1211.77 6113.31 1213.19 6114.69 1214.32C6116.07 1215.44 6117.88 1216 6120.13 1216ZM6356.71 1051.53H6296.62V1216H6271.63V1051.53H6211.41V1030.43H6356.71V1051.53ZM6469.72 1216H6494.84V1030.43H6469.72V1216ZM6799.24 1123.28C6799.24 1137.18 6797.03 1149.95 6792.63 1161.61C6788.23 1173.18 6782.01 1183.15 6773.98 1191.52C6765.95 1199.9 6756.29 1206.42 6744.98 1211.08C6733.75 1215.65 6721.32 1217.94 6707.68 1217.94C6694.04 1217.94 6681.61 1215.65 6670.38 1211.08C6659.16 1206.42 6649.53 1199.9 6641.5 1191.52C6633.48 1183.15 6627.26 1173.18 6622.86 1161.61C6618.45 1149.95 6616.25 1137.18 6616.25 1123.28C6616.25 1109.38 6618.45 1096.64 6622.86 1085.07C6627.26 1073.42 6633.48 1063.4 6641.5 1055.03C6649.53 1046.57 6659.16 1040.01 6670.38 1035.35C6681.61 1030.68 6694.04 1028.35 6707.68 1028.35C6721.32 1028.35 6733.75 1030.68 6744.98 1035.35C6756.29 1040.01 6765.95 1046.57 6773.98 1055.03C6782.01 1063.4 6788.23 1073.42 6792.63 1085.07C6797.03 1096.64 6799.24 1109.38 6799.24 1123.28ZM6773.47 1123.28C6773.47 1111.88 6771.91 1101.65 6768.8 1092.59C6765.7 1083.52 6761.29 1075.88 6755.59 1069.66C6749.9 1063.36 6742.99 1058.53 6734.87 1055.16C6726.76 1051.79 6717.69 1050.11 6707.68 1050.11C6697.75 1050.11 6688.73 1051.79 6680.61 1055.16C6672.5 1058.53 6665.55 1063.36 6659.76 1069.66C6654.07 1075.88 6649.66 1083.52 6646.56 1092.59C6643.45 1101.65 6641.89 1111.88 6641.89 1123.28C6641.89 1134.67 6643.45 1144.9 6646.56 1153.97C6649.66 1162.95 6654.07 1170.59 6659.76 1176.89C6665.55 1183.11 6672.5 1187.9 6680.61 1191.26C6688.73 1194.55 6697.75 1196.19 6707.68 1196.19C6717.69 1196.19 6726.76 1194.55 6734.87 1191.26C6742.99 1187.9 6749.9 1183.11 6755.59 1176.89C6761.29 1170.59 6765.7 1162.95 6768.8 1153.97C6771.91 1144.9 6773.47 1134.67 6773.47 1123.28ZM7071 1216V1030.43H7048.99V1161.87C7048.99 1163.77 7049.03 1165.8 7049.11 1167.95C7049.29 1170.03 7049.46 1172.18 7049.63 1174.43L6942.28 1034.7C6941.59 1033.84 6940.94 1033.15 6940.33 1032.63C6939.73 1032.02 6939.13 1031.59 6938.52 1031.33C6937.92 1030.99 6937.23 1030.77 6936.45 1030.68C6935.67 1030.51 6934.72 1030.43 6933.6 1030.43H6920.65V1216H6942.67V1083.78C6942.67 1081.97 6942.62 1080.02 6942.54 1077.95C6942.47 1076.48 6942.39 1074.99 6942.29 1073.47L6942.23 1072.65C6942.2 1072.31 6942.18 1071.96 6942.15 1071.61L7049.5 1211.47C7050.8 1213.11 7052.09 1214.27 7053.39 1214.96C7054.77 1215.65 7056.45 1216 7058.44 1216H7071Z" fill="#252525"/>
<path d="M3782.88 1058.53C3782.89 1058.51 3782.9 1058.48 3782.91 1058.46L3817.95 1145.44H3747.83L3782.88 1058.53ZM3717.07 1218.09C3718.44 1217 3719.5 1215.62 3720.12 1213.95L3740.58 1163.28H3825.19L3845.68 1214L3845.68 1214.02L3845.69 1214.04C3846.34 1215.59 3847.28 1216.96 3848.54 1218.08L3848.64 1218.17L3848.74 1218.25C3850.37 1219.52 3852.29 1220 3854.18 1220H3864.41H3870.37L3868.11 1214.49L3793.13 1031.24L3792.11 1028.76H3789.43H3776.35H3773.66L3772.65 1031.24L3697.66 1214.49L3695.41 1220H3701.37H3711.47C3713.49 1220 3715.43 1219.4 3717.07 1218.09ZM4125.67 1032.76V1028.76H4121.67H4110.14H4106.14V1032.76V1181.32L3994.98 1032.82L3994.98 1032.82C3994.1 1031.65 3992.89 1030.35 3991.28 1029.65C3989.84 1028.92 3988.22 1028.76 3986.86 1028.76H3980.25H3976.25V1032.76V1216V1220H3980.25H3991.91H3995.91V1216V1066.92L4107.29 1215.76C4107.3 1215.77 4107.3 1215.78 4107.31 1215.79C4108.18 1216.97 4109.22 1218.08 4110.48 1218.87L4110.72 1219.02L4110.98 1219.14C4112.4 1219.77 4113.94 1220 4115.45 1220H4121.67H4125.67V1216V1032.76ZM4257.24 1216V1220H4261.24H4328.19C4341.58 1220 4353.91 1217.81 4365.13 1213.38C4376.43 1208.95 4386.16 1202.55 4394.26 1194.18C4402.36 1185.8 4408.6 1175.69 4413 1163.92C4417.43 1152.09 4419.6 1138.87 4419.6 1124.31C4419.6 1109.84 4417.42 1096.67 4413 1084.84C4408.6 1073.06 4402.36 1062.95 4394.26 1054.58C4386.16 1046.21 4376.43 1039.81 4365.14 1035.38C4353.91 1030.95 4341.58 1028.76 4328.19 1028.76H4261.24H4257.24V1032.76V1216ZM4392.79 1091.46C4396.15 1100.97 4397.87 1111.9 4397.87 1124.31C4397.87 1136.82 4396.15 1147.79 4392.79 1157.3C4389.41 1166.86 4384.68 1174.82 4378.62 1181.28C4372.56 1187.74 4365.29 1192.68 4356.75 1196.1C4348.21 1199.51 4338.71 1201.25 4328.19 1201.25H4278.57V1047.51H4328.19C4338.71 1047.51 4348.21 1049.24 4356.75 1052.66C4365.29 1056.07 4372.56 1061.01 4378.62 1067.48C4384.68 1073.94 4389.41 1081.9 4392.79 1091.46Z" fill="#FFAACC" stroke="#FFAACC" stroke-width="8"/>
</svg>
