<svg width="2482" height="1655" viewBox="0 0 2482 1655" fill="none" xmlns="http://www.w3.org/2000/svg">
<path fill-rule="evenodd" clip-rule="evenodd" d="M1654.67 220.667H827.333C492.256 220.667 220.622 492.355 220.622 827.5C220.622 1162.64 492.256 1434.33 827.333 1434.33H1654.67C1989.74 1434.33 2261.38 1162.64 2261.38 827.5C2261.38 492.355 1989.74 220.667 1654.67 220.667ZM827.333 0C370.41 0 0 370.484 0 827.5C0 1284.52 370.41 1655 827.333 1655H1654.67C2111.59 1655 2482 1284.52 2482 827.5C2482 370.484 2111.59 0 1654.67 0H827.333ZM608.435 424.094V576.947V577.286V1230.57H1085.09V577.286H1241V1230.91H1479.33V577.286H1635.24V1230.91H1873.57V577.286V424.094H608.435ZM2294.6 44.7998H2193.8V75.3998H2225.2V166.4H2263V75.3998H2294.6V44.7998ZM2455.4 166.4V44.7998H2422.8C2419.73 44.7998 2417.4 45.1331 2415.8 45.7998C2414.2 46.3331 2412.47 47.8665 2410.6 50.3998L2387 97.9998C2385.67 100.533 2384.47 103.066 2383.4 105.6C2382.47 108.133 2381.6 110.666 2380.8 113.2C2379.33 108.4 2377.33 103.333 2374.8 97.9998L2352 50.3998C2350 47.8665 2348.27 46.3331 2346.8 45.7998C2345.33 45.1331 2343 44.7998 2339.8 44.7998H2307V166.4H2340.2V110.4L2338 90.1998L2365.4 146.8C2366.6 149.466 2368.33 151.466 2370.6 152.8C2372.87 154.133 2375.4 154.8 2378.2 154.8H2383.6C2389.6 154.8 2393.93 152.133 2396.6 146.8L2424.8 89.3998L2422.2 110.4V166.4H2455.4Z" fill="#898989"/>
</svg>
