<svg width="24" height="24" viewBox="0 0 24 24" fill="none" xmlns="http://www.w3.org/2000/svg">
<path d="M5.27383 3C3.89893 3 3 3.85768 3 4.98499C3 6.0874 3.87215 6.96954 5.22107 6.96954H5.24716C6.64895 6.96954 7.52133 6.0874 7.52133 4.98499C7.49512 3.85768 6.64895 3 5.27383 3V3Z" fill="#898989"/>
<path d="M3.23755 8.53802H7.25694V20.0259H3.23755V8.53802Z" fill="#898989"/>
<path d="M17.1227 8.2684C14.9544 8.2684 13.5004 10.204 13.5004 10.204V8.53802H9.4809V20.0259H13.5002V13.6106C13.5002 13.2672 13.5264 12.9243 13.6326 12.6787C13.9232 11.9929 14.5844 11.2824 15.6948 11.2824C17.1492 11.2824 17.7309 12.3359 17.7309 13.8803V20.0259H21.75V13.439C21.75 9.91038 19.767 8.2684 17.1227 8.2684V8.2684Z" fill="#898989"/>
</svg>
